<svg width="316" height="91" fill="none" xmlns="http://www.w3.org/2000/svg"><path fill-rule="evenodd" clip-rule="evenodd" d="M194.492 50.243h-.082c-.362.8-1.055 1.483-2.454 1.483-1.714 0-2.867-1.053-2.867-2.907v-4.924h1.796v4.686c0 1.217.609 1.825 1.762 1.825.923 0 1.845-.43 1.845-1.32v-5.19h1.796v7.652h-1.796v-1.305zM199.06 51.548v-7.653h1.795V45.2h.083c.362-.8 1.054-1.483 2.454-1.483 1.713 0 2.866 1.053 2.866 2.907v4.924h-1.795V46.86c0-1.216-.61-1.824-1.763-1.824-.923 0-1.845.43-1.845 1.32v5.19h-1.795zM214.35 48.997v-2.551c0-.935-.89-1.41-1.927-1.41-1.351 0-2.126.816-2.126 2.062v1.246c0 1.246.775 2.062 2.126 2.062 1.037 0 1.927-.475 1.927-1.41zm0 1.246h-.098c-.495.92-1.318 1.483-2.571 1.483-1.993 0-3.278-1.38-3.278-4.005s1.285-4.004 3.278-4.004c1.253 0 2.076.563 2.571 1.483h.098v-4.627h1.795v10.975h-1.795v-1.305zM223.793 49.264v-1.113h-1.598c-1.318 0-1.944.371-1.944 1.053v.297c0 .682.593 1.038 1.548 1.038 1.154 0 1.994-.519 1.994-1.275zm1.763 2.284c-1.021 0-1.532-.52-1.632-1.29h-.082c-.329.919-1.219 1.468-2.553 1.468-1.73 0-2.85-.875-2.85-2.314 0-1.483 1.203-2.284 3.723-2.284h1.631v-.593c0-1.024-.61-1.557-1.829-1.557-1.087 0-1.729.415-2.191 1.053l-1.07-.786c.478-.831 1.63-1.528 3.426-1.528 2.142 0 3.46.964 3.46 2.714v3.841h1.07v1.276h-1.103zM235.889 45.526l-1.401.683c-.296-.712-.923-1.157-1.911-1.157-1.351 0-2.141.816-2.141 2.032v1.275c0 1.201.773 2.032 2.174 2.032 1.054 0 1.697-.474 2.092-1.216l1.318.727c-.527 1.053-1.582 1.78-3.279 1.824l-.164.682.066.06c.231-.06.478-.104.709-.104.642 0 1.153.326 1.153 1.008 0 .905-.94 1.276-1.977 1.276-.989 0-1.549-.342-1.796-.623l.676-.697c.197.222.543.415 1.037.415.412 0 .725-.134.725-.43 0-.238-.197-.49-1.169-.594l-.412-.044.23-1.008c-2.059-.283-3.261-1.766-3.261-3.946 0-2.447 1.515-4.004 4.019-4.004 1.747 0 2.784.742 3.312 1.81zM243.569 49.264v-1.113h-1.598c-1.318 0-1.945.371-1.945 1.054v.296c0 .682.594 1.039 1.549 1.039 1.153 0 1.994-.52 1.994-1.276zm-1.68-7.015c-.495-.223-.874-.341-1.219-.341-.363 0-.627.133-.957.386l-.675-.772c.33-.46.89-.845 1.697-.845.544 0 .922.178 1.285.34.494.223.873.342 1.219.342.362 0 .626-.134.955-.386l.676.772c-.33.46-.89.845-1.697.845-.544 0-.922-.178-1.284-.341zm3.442 9.299c-1.021 0-1.532-.52-1.631-1.29h-.082c-.33.92-1.219 1.468-2.553 1.468-1.73 0-2.85-.875-2.85-2.314 0-1.483 1.202-2.284 3.723-2.284h1.631v-.593c0-1.024-.61-1.557-1.829-1.557-1.087 0-1.73.415-2.191 1.053l-1.071-.786c.478-.831 1.631-1.528 3.426-1.528 2.142 0 3.46.964 3.46 2.714v3.841h1.07v1.276h-1.103zM254.214 48.3v-1.157c0-1.424-.856-2.15-2.157-2.15-1.302 0-2.158.726-2.158 2.15v1.156c0 1.424.856 2.15 2.158 2.15 1.301 0 2.157-.726 2.157-2.15zm-6.193-.579c0-2.447 1.532-4.005 4.036-4.005 2.504 0 4.035 1.558 4.035 4.005s-1.531 4.004-4.035 4.004c-2.504 0-4.036-1.557-4.036-4.004zM185.049 66.149v-1.246c0-1.246-.774-2.062-2.125-2.062-1.037 0-1.927.475-1.927 1.41v2.55c0 .934.89 1.409 1.927 1.409 1.351 0 2.125-.816 2.125-2.061zm-5.848-4.45h1.796v1.305h.099c.494-.92 1.317-1.483 2.57-1.483 1.992 0 3.277 1.38 3.277 4.005s-1.285 4.004-3.277 4.004c-1.253 0-2.076-.563-2.57-1.483h-.099v4.272h-1.796v-10.62zM194.13 67.069v-1.113h-1.598c-1.318 0-1.944.37-1.944 1.053v.296c0 .683.593 1.039 1.548 1.039 1.153 0 1.994-.52 1.994-1.275zm1.763 2.283c-1.021 0-1.532-.519-1.632-1.29h-.082c-.329.92-1.219 1.468-2.553 1.468-1.73 0-2.85-.875-2.85-2.314 0-1.482 1.203-2.283 3.723-2.283h1.631v-.594c0-1.023-.61-1.557-1.829-1.557-1.087 0-1.729.416-2.191 1.053l-1.07-.786c.478-.83 1.63-1.528 3.426-1.528 2.142 0 3.46.965 3.46 2.715v3.84h1.07v1.276h-1.103zM198.928 68.047h2.257v-5.042h-2.257V61.7h4.053v2.031h.098c.329-1.068 1.071-2.031 2.801-2.031h1.021v1.542h-1.68c-1.466 0-2.24.875-2.24 1.943v2.862h3.08v1.305h-7.133v-1.305zM213.905 67.069v-1.113h-1.598c-1.317 0-1.944.37-1.944 1.053v.296c0 .683.594 1.039 1.549 1.039 1.153 0 1.993-.52 1.993-1.275zm1.763 2.283c-1.021 0-1.532-.519-1.631-1.29h-.082c-.33.92-1.219 1.468-2.553 1.468-1.73 0-2.85-.875-2.85-2.314 0-1.482 1.202-2.283 3.723-2.283h1.63v-.594c0-1.023-.609-1.557-1.828-1.557-1.087 0-1.73.416-2.191 1.053l-1.071-.786c.478-.83 1.631-1.528 3.426-1.528 2.142 0 3.46.965 3.46 2.715v3.84h1.07v1.276h-1.103zM233.681 67.069v-1.113h-1.597c-1.318 0-1.945.37-1.945 1.053v.296c0 .683.593 1.039 1.549 1.039 1.153 0 1.993-.52 1.993-1.275zm1.763 2.283c-1.021 0-1.532-.519-1.631-1.29h-.083c-.329.92-1.219 1.468-2.552 1.468-1.73 0-2.85-.875-2.85-2.314 0-1.482 1.202-2.283 3.722-2.283h1.631v-.594c0-1.023-.61-1.557-1.829-1.557-1.086 0-1.729.416-2.191 1.053l-1.07-.786c.478-.83 1.63-1.528 3.426-1.528 2.142 0 3.46.965 3.46 2.715v3.84h1.07v1.276h-1.103zM248.07 64.176c0-3.426 1.4-5.354 4.316-5.354 2.224 0 3.245 1.157 3.772 2.565l-1.663.505c-.347-.95-.824-1.69-2.126-1.69-1.631 0-2.339 1.2-2.339 3.099v1.75c0 1.898.708 3.1 2.339 3.1 1.302 0 1.779-.742 2.126-1.691l1.663.504c-.527 1.41-1.548 2.566-3.772 2.566-2.916 0-4.316-1.928-4.316-5.354zM261.236 59.43v-.311c0-.49.329-.875 1.219-.875.906 0 1.235.385 1.235.875v.311c0 .49-.329.875-1.219.875-.906 0-1.235-.386-1.235-.875zm-2.571 8.617h2.9v-5.043h-2.9V61.7h4.696v6.347h2.717v1.305h-7.413v-1.305zM269.69 64.784v.103h4.267v-.148c0-1.201-.824-1.987-2.077-1.987-1.284 0-2.19.845-2.19 2.032zm3.064-6.912 1.977 2.225-.956.623-1.944-1.72-1.96 1.72-.906-.623 1.977-2.225h1.812zm-4.876 7.668c0-2.462 1.581-4.02 4.002-4.02 2.39 0 3.905 1.543 3.905 3.798v.608h-6.095v.252c0 1.201.89 2.047 2.355 2.047 1.088 0 1.878-.46 2.356-1.172l1.121.89c-.577.89-1.763 1.587-3.509 1.587-2.603 0-4.135-1.558-4.135-3.99zM278.162 69.352V61.7h1.795v1.305h.083c.362-.801 1.054-1.484 2.454-1.484 1.713 0 2.866 1.054 2.866 2.907v4.924h-1.795v-4.686c0-1.216-.61-1.825-1.763-1.825-.923 0-1.845.43-1.845 1.32v5.191h-1.795zM287.884 65.526c0-2.447 1.515-4.005 4.02-4.005 1.746 0 2.784.742 3.311 1.81l-1.4.682c-.296-.712-.923-1.157-1.911-1.157-1.351 0-2.142.816-2.142 2.032v1.275c0 1.202.774 2.032 2.175 2.032 1.054 0 1.696-.474 2.092-1.216l1.318.727c-.544 1.068-1.648 1.824-3.427 1.824-2.537 0-4.036-1.557-4.036-4.004zM300.786 59.43v-.311c0-.49.33-.875 1.219-.875.906 0 1.236.385 1.236.875v.311c0 .49-.33.875-1.219.875-.906 0-1.236-.386-1.236-.875zm-2.57 8.617h2.9v-5.043h-2.9V61.7h4.695v6.347h2.718v1.305h-7.413v-1.305zM312.783 67.069v-1.113h-1.598c-1.317 0-1.944.37-1.944 1.053v.296c0 .683.593 1.039 1.549 1.039 1.153 0 1.993-.52 1.993-1.275zm1.763 2.283c-1.021 0-1.532-.519-1.631-1.29h-.083c-.329.92-1.219 1.468-2.552 1.468-1.73 0-2.85-.875-2.85-2.314 0-1.482 1.202-2.283 3.722-2.283h1.631v-.594c0-1.023-.61-1.557-1.829-1.557-1.086 0-1.729.416-2.19 1.053l-1.071-.786c.478-.83 1.631-1.528 3.426-1.528 2.142 0 3.46.965 3.46 2.715v3.84h1.07v1.276h-1.103zM180.7 82.588v.104h4.268v-.148c0-1.201-.824-1.987-2.077-1.987-1.285 0-2.191.845-2.191 2.031zm-1.811.757c0-2.462 1.581-4.02 4.002-4.02 2.389 0 3.905 1.543 3.905 3.797v.609H180.7v.252c0 1.201.89 2.046 2.356 2.046 1.088 0 1.878-.46 2.356-1.171l1.121.89c-.577.89-1.764 1.587-3.509 1.587-2.603 0-4.135-1.558-4.135-3.99zM204.018 84.873V83.76h-1.598c-1.317 0-1.944.371-1.944 1.053v.297c0 .682.593 1.038 1.548 1.038 1.154 0 1.994-.52 1.994-1.275zm1.763 2.283c-1.021 0-1.532-.519-1.631-1.29h-.083c-.329.92-1.219 1.469-2.553 1.469-1.729 0-2.849-.875-2.849-2.314 0-1.483 1.202-2.284 3.722-2.284h1.631v-.594c0-1.023-.61-1.557-1.829-1.557-1.086 0-1.729.416-2.191 1.053l-1.07-.786c.478-.83 1.63-1.528 3.426-1.528 2.142 0 3.46.965 3.46 2.715v3.841h1.07v1.275h-1.103zM223.315 78.198v8.958h-1.845v-8.958h-3.608v-1.394h9.061v1.394h-3.608zM230.139 82.588v.104h4.267v-.148c0-1.201-.824-1.987-2.076-1.987-1.285 0-2.191.845-2.191 2.031zm-1.812.757c0-2.462 1.581-4.02 4.003-4.02 2.389 0 3.904 1.543 3.904 3.797v.609h-6.095v.252c0 1.201.889 2.046 2.355 2.046 1.088 0 1.878-.46 2.356-1.171l1.121.89c-.577.89-1.763 1.587-3.509 1.587-2.603 0-4.135-1.558-4.135-3.99zM238.445 83.33c0-2.447 1.515-4.005 4.02-4.005 1.746 0 2.784.742 3.311 1.81l-1.4.682c-.296-.711-.923-1.156-1.911-1.156-1.351 0-2.142.816-2.142 2.031v1.276c0 1.201.774 2.032 2.175 2.032 1.054 0 1.696-.475 2.092-1.216l1.318.726c-.544 1.068-1.648 1.825-3.427 1.825-2.537 0-4.036-1.558-4.036-4.005zM248.499 87.157v-7.653h1.795v1.305h.083c.361-.801 1.054-1.483 2.454-1.483 1.713 0 2.866 1.053 2.866 2.907v4.924h-1.795V82.47c0-1.216-.61-1.825-1.763-1.825-.923 0-1.845.43-1.845 1.32v5.192h-1.795zM264.102 83.909v-1.157c0-1.424-.857-2.15-2.158-2.15s-2.158.726-2.158 2.15v1.157c0 1.423.857 2.15 2.158 2.15s2.158-.727 2.158-2.15zm-6.194-.579c0-2.447 1.532-4.005 4.036-4.005 2.504 0 4.036 1.558 4.036 4.005s-1.532 4.005-4.036 4.005c-2.504 0-4.036-1.558-4.036-4.005zM268.125 85.851h2.817v-8.364h-2.817v-1.305h4.612v9.67h2.817v1.305h-7.429V85.85zM283.878 83.909v-1.157c0-1.424-.857-2.15-2.158-2.15s-2.158.726-2.158 2.15v1.157c0 1.423.857 2.15 2.158 2.15s2.158-.727 2.158-2.15zm-6.194-.579c0-2.447 1.532-4.005 4.036-4.005 2.504 0 4.036 1.558 4.036 4.005s-1.532 4.005-4.036 4.005c-2.504 0-4.036-1.558-4.036-4.005zM293.238 82.203v-.4c0-.817-.543-1.365-1.697-1.365-1.153 0-1.697.548-1.697 1.364v.4c0 .816.544 1.365 1.697 1.365 1.154 0 1.697-.549 1.697-1.364zm-.461 5.043h-2.949c-.412.177-.626.459-.626.86 0 .578.494 1.052 1.746 1.052h1.335c1.35 0 2.092-.37 2.092-1.068 0-.518-.396-.844-1.598-.844zM291.59 90.3c-2.932 0-3.953-.697-3.953-1.839 0-.83.543-1.26 1.483-1.483v-.148c-.577-.193-.94-.534-.94-1.113 0-.756.643-1.097 1.532-1.29v-.074c-1.021-.43-1.63-1.246-1.63-2.343 0-1.631 1.367-2.685 3.459-2.685.594 0 1.137.09 1.598.253v-.253c0-.593.379-1.038 1.137-1.038h1.548v1.275h-1.977v.357c.741.46 1.153 1.171 1.153 2.09 0 1.632-1.367 2.67-3.459 2.67-.378 0-.725-.03-1.054-.089-.396.09-.89.327-.89.742 0 .475.577.534 1.318.534h1.911c2.29 0 3.229.86 3.229 2.12 0 1.573-1.467 2.314-4.465 2.314zM300.786 77.234v-.311c0-.49.33-.875 1.219-.875.906 0 1.236.385 1.236.875v.311c0 .49-.33.875-1.219.875-.906 0-1.236-.386-1.236-.875zm-2.57 8.617h2.9v-5.043h-2.9v-1.304h4.695v6.347h2.718v1.305h-7.413v-1.305zM312.783 84.873V83.76h-1.598c-1.317 0-1.944.371-1.944 1.053v.297c0 .682.593 1.038 1.549 1.038 1.153 0 1.993-.52 1.993-1.275zm1.763 2.283c-1.021 0-1.532-.519-1.631-1.29h-.083c-.329.92-1.219 1.469-2.552 1.469-1.73 0-2.85-.875-2.85-2.314 0-1.483 1.202-2.284 3.722-2.284h1.631v-.594c0-1.023-.61-1.557-1.829-1.557-1.086 0-1.729.416-2.19 1.053l-1.071-.786c.478-.83 1.631-1.528 3.426-1.528 2.142 0 3.46.965 3.46 2.715v3.841h1.07v1.275h-1.103zM26.485 36.817h20.194v7.82H26.485v34.842h20.194v7.82H0v-7.82h16.642V44.637H0v-7.82h13.056c1.98 0 3.586-1.445 3.586-3.228V28.67c0-1.998.882-3.915 2.451-5.327l9.33-8.4c1.57-1.413 3.698-2.164 5.917-2.164H46.68v7.777H26.485v16.26zM74.206 12.78h21.09v7.82H66.202v38.129h29.096v7.82H74.206c-2.22 0-4.348-.794-5.917-2.207l-9.48-8.535c-1.57-1.413-2.452-3.33-2.452-5.328V28.85c0-1.998.882-3.915 2.451-5.327l9.48-8.536c1.57-1.413 3.698-2.206 5.918-2.206zM120.798 51.207V20.6h-16.363V12.78h12.777c1.98 0 3.586-1.446 3.586-3.229V.27h9.842V12.78h21.223v7.82H130.64v38.129h21.223v7.82h-15.109c-2.413 0-4.709-.938-6.298-2.573l-7.588-7.808c-1.335-1.373-2.07-3.136-2.07-4.96zM56.357 87.299h95.506V79.48H56.357V87.3zM179.317 51.547V41.195h7.396v1.394h-5.551V45.6h5.041v1.394h-5.041v4.553h-1.845z" fill="#000"/></svg>